<svg width="491" height="306" viewBox="0 0 491 306" fill="none" xmlns="http://www.w3.org/2000/svg">
<path d="M78.4346 283.697C78.4346 284.951 78.2718 286.082 77.9463 287.091C77.637 288.084 77.222 288.963 76.7012 289.728C76.1803 290.493 75.57 291.144 74.8701 291.681C74.1702 292.218 73.446 292.657 72.6973 292.999C71.9486 293.341 71.1836 293.593 70.4023 293.756C69.6374 293.919 68.9131 294 68.2295 294H43.7422V287.652H68.2295C69.4502 287.652 70.3942 287.294 71.0615 286.578C71.7451 285.862 72.0869 284.902 72.0869 283.697C72.0869 283.111 71.9974 282.574 71.8184 282.086C71.6393 281.598 71.3789 281.174 71.0371 280.816C70.7116 280.458 70.3047 280.182 69.8164 279.986C69.3444 279.791 68.8154 279.693 68.2295 279.693H53.6299C52.6045 279.693 51.4977 279.514 50.3096 279.156C49.1214 278.782 48.0146 278.188 46.9893 277.374C45.9801 276.56 45.1338 275.494 44.4502 274.176C43.7829 272.857 43.4492 271.246 43.4492 269.342C43.4492 267.438 43.7829 265.834 44.4502 264.532C45.1338 263.214 45.9801 262.148 46.9893 261.334C48.0146 260.504 49.1214 259.91 50.3096 259.552C51.4977 259.177 52.6045 258.99 53.6299 258.99H75.2363V265.338H53.6299C52.4255 265.338 51.4814 265.704 50.7979 266.437C50.1305 267.169 49.7969 268.137 49.7969 269.342C49.7969 270.562 50.1305 271.531 50.7979 272.247C51.4814 272.947 52.4255 273.297 53.6299 273.297H68.2295H68.2783C68.9619 273.313 69.6862 273.411 70.4512 273.59C71.2161 273.753 71.973 274.013 72.7217 274.371C73.4867 274.729 74.2109 275.185 74.8945 275.738C75.5781 276.275 76.1803 276.926 76.7012 277.691C77.2383 278.456 77.6615 279.335 77.9707 280.328C78.2799 281.321 78.4346 282.444 78.4346 283.697ZM110.246 285.26C110.246 286.139 110.091 287.091 109.782 288.116C109.473 289.125 108.968 290.069 108.269 290.948C107.585 291.811 106.682 292.535 105.559 293.121C104.452 293.707 103.101 294 101.506 294H90.0557C89.1768 294 88.2246 293.845 87.1992 293.536C86.1901 293.227 85.2461 292.73 84.3672 292.047C83.5046 291.347 82.7803 290.444 82.1943 289.337C81.6084 288.214 81.3154 286.855 81.3154 285.26C81.3154 284.381 81.4701 283.429 81.7793 282.403C82.0885 281.378 82.585 280.434 83.2686 279.571C83.9684 278.692 84.8717 277.96 85.9785 277.374C87.1016 276.788 88.4606 276.495 90.0557 276.495H101.506V282.55H90.0557C89.193 282.55 88.5257 282.818 88.0537 283.355C87.5817 283.876 87.3457 284.527 87.3457 285.309C87.3457 286.139 87.6143 286.79 88.1514 287.262C88.7048 287.717 89.3558 287.945 90.1045 287.945H101.506C102.368 287.945 103.036 287.685 103.508 287.164C103.98 286.643 104.216 285.992 104.216 285.211V276.349C104.216 275.519 103.955 274.859 103.435 274.371C102.93 273.883 102.287 273.639 101.506 273.639H87.5654V267.608H101.506C102.385 267.608 103.329 267.763 104.338 268.072C105.363 268.382 106.307 268.886 107.17 269.586C108.049 270.27 108.781 271.173 109.367 272.296C109.953 273.403 110.246 274.754 110.246 276.349V285.26ZM127.263 294H124.431C123.519 294 122.543 293.845 121.501 293.536C120.476 293.227 119.515 292.722 118.62 292.022C117.725 291.306 116.984 290.387 116.398 289.264C115.812 288.124 115.52 286.733 115.52 285.089V256.451H121.867V285.089C121.867 285.87 122.111 286.497 122.6 286.969C123.088 287.424 123.698 287.652 124.431 287.652H127.263V294ZM159.733 276.349C159.733 277.228 159.579 278.18 159.27 279.205C158.96 280.214 158.456 281.158 157.756 282.037C157.072 282.9 156.169 283.624 155.046 284.21C153.939 284.796 152.588 285.089 150.993 285.089H139.543V279.059H150.993C151.856 279.059 152.523 278.798 152.995 278.277C153.467 277.74 153.703 277.081 153.703 276.3C153.703 275.47 153.435 274.819 152.897 274.347C152.377 273.875 151.742 273.639 150.993 273.639H139.543C138.68 273.639 138.013 273.907 137.541 274.444C137.069 274.965 136.833 275.616 136.833 276.397V285.26C136.833 286.106 137.093 286.765 137.614 287.237C138.151 287.709 138.811 287.945 139.592 287.945H150.993V294H139.543C138.664 294 137.712 293.845 136.687 293.536C135.677 293.227 134.733 292.73 133.854 292.047C132.992 291.347 132.268 290.444 131.682 289.337C131.096 288.214 130.803 286.855 130.803 285.26V276.349C130.803 275.47 130.957 274.526 131.267 273.517C131.576 272.491 132.072 271.547 132.756 270.685C133.456 269.806 134.359 269.073 135.466 268.487C136.589 267.901 137.948 267.608 139.543 267.608H150.993C151.872 267.608 152.816 267.763 153.825 268.072C154.851 268.382 155.795 268.886 156.657 269.586C157.536 270.27 158.269 271.173 158.854 272.296C159.44 273.403 159.733 274.754 159.733 276.349ZM189.519 285.089C189.519 286.179 189.38 287.164 189.104 288.043C188.827 288.906 188.461 289.671 188.005 290.338C187.549 290.989 187.02 291.55 186.418 292.022C185.816 292.478 185.181 292.853 184.514 293.146C183.863 293.438 183.195 293.658 182.512 293.805C181.844 293.935 181.21 294 180.607 294H163.42V287.652H180.559C181.421 287.652 182.072 287.433 182.512 286.993C182.951 286.554 183.171 285.919 183.171 285.089C183.09 283.396 182.235 282.55 180.607 282.55H170.769C169.369 282.55 168.181 282.306 167.204 281.817C166.228 281.329 165.43 280.719 164.812 279.986C164.209 279.254 163.77 278.465 163.493 277.618C163.233 276.772 163.103 275.982 163.103 275.25C163.103 273.834 163.355 272.646 163.859 271.686C164.364 270.709 164.999 269.92 165.764 269.317C166.529 268.715 167.359 268.284 168.254 268.023C169.149 267.747 169.987 267.608 170.769 267.608H186.369V273.956H170.817C170.492 273.956 170.231 273.997 170.036 274.078C169.857 274.143 169.719 274.241 169.621 274.371C169.54 274.485 169.491 274.615 169.475 274.762C169.458 274.892 169.45 275.022 169.45 275.152C169.466 275.413 169.515 275.616 169.597 275.763C169.678 275.909 169.776 276.015 169.89 276.08C170.02 276.145 170.158 276.186 170.305 276.202C170.467 276.202 170.622 276.202 170.769 276.202H180.607C182.235 276.202 183.618 276.495 184.758 277.081C185.897 277.667 186.817 278.408 187.517 279.303C188.216 280.182 188.721 281.142 189.03 282.184C189.356 283.225 189.519 284.194 189.519 285.089ZM251.701 294H245.305V273.15L234.05 292.95C233.773 293.455 233.382 293.837 232.878 294.098C232.39 294.358 231.861 294.488 231.291 294.488C230.738 294.488 230.217 294.358 229.729 294.098C229.257 293.837 228.882 293.455 228.605 292.95L217.302 273.15V294H210.954V261.7C210.954 260.968 211.166 260.317 211.589 259.747C212.028 259.177 212.598 258.795 213.298 258.6C213.64 258.518 213.981 258.494 214.323 258.526C214.665 258.543 214.991 258.616 215.3 258.746C215.625 258.86 215.918 259.031 216.179 259.259C216.439 259.47 216.659 259.731 216.838 260.04L231.291 285.162L245.744 260.04C246.118 259.422 246.631 258.982 247.282 258.722C247.95 258.461 248.641 258.421 249.357 258.6C250.041 258.795 250.603 259.177 251.042 259.747C251.481 260.317 251.701 260.968 251.701 261.7V294ZM285.49 285.26C285.49 286.139 285.336 287.091 285.026 288.116C284.717 289.125 284.213 290.069 283.513 290.948C282.829 291.811 281.926 292.535 280.803 293.121C279.696 293.707 278.345 294 276.75 294H265.3C264.421 294 263.469 293.845 262.443 293.536C261.434 293.227 260.49 292.73 259.611 292.047C258.749 291.347 258.024 290.444 257.438 289.337C256.853 288.214 256.56 286.855 256.56 285.26C256.56 284.381 256.714 283.429 257.023 282.403C257.333 281.378 257.829 280.434 258.513 279.571C259.213 278.692 260.116 277.96 261.223 277.374C262.346 276.788 263.705 276.495 265.3 276.495H276.75V282.55H265.3C264.437 282.55 263.77 282.818 263.298 283.355C262.826 283.876 262.59 284.527 262.59 285.309C262.59 286.139 262.858 286.79 263.396 287.262C263.949 287.717 264.6 287.945 265.349 287.945H276.75C277.613 287.945 278.28 287.685 278.752 287.164C279.224 286.643 279.46 285.992 279.46 285.211V276.349C279.46 275.519 279.2 274.859 278.679 274.371C278.174 273.883 277.531 273.639 276.75 273.639H262.81V267.608H276.75C277.629 267.608 278.573 267.763 279.582 268.072C280.607 268.382 281.551 268.886 282.414 269.586C283.293 270.27 284.025 271.173 284.611 272.296C285.197 273.403 285.49 274.754 285.49 276.349V285.26ZM320.158 294H313.811V279.352C313.811 278.521 313.664 277.781 313.371 277.13C313.094 276.463 312.712 275.893 312.224 275.421C311.735 274.949 311.158 274.591 310.49 274.347C309.839 274.086 309.131 273.956 308.366 273.956H297.258V294H290.91V270.758C290.91 270.318 290.992 269.911 291.154 269.537C291.317 269.146 291.545 268.813 291.838 268.536C292.131 268.243 292.473 268.015 292.863 267.853C293.254 267.69 293.669 267.608 294.108 267.608H308.415C309.213 267.608 310.051 267.698 310.93 267.877C311.825 268.056 312.704 268.349 313.566 268.756C314.445 269.146 315.275 269.651 316.057 270.27C316.854 270.872 317.554 271.612 318.156 272.491C318.775 273.354 319.263 274.355 319.621 275.494C319.979 276.633 320.158 277.919 320.158 279.352V294ZM352.971 285.26C352.971 286.139 352.816 287.091 352.507 288.116C352.198 289.125 351.693 290.069 350.993 290.948C350.31 291.811 349.406 292.535 348.283 293.121C347.176 293.707 345.826 294 344.23 294H332.78C331.901 294 330.949 293.845 329.924 293.536C328.915 293.227 327.971 292.73 327.092 292.047C326.229 291.347 325.505 290.444 324.919 289.337C324.333 288.214 324.04 286.855 324.04 285.26C324.04 284.381 324.195 283.429 324.504 282.403C324.813 281.378 325.31 280.434 325.993 279.571C326.693 278.692 327.596 277.96 328.703 277.374C329.826 276.788 331.185 276.495 332.78 276.495H344.23V282.55H332.78C331.918 282.55 331.25 282.818 330.778 283.355C330.306 283.876 330.07 284.527 330.07 285.309C330.07 286.139 330.339 286.79 330.876 287.262C331.429 287.717 332.08 287.945 332.829 287.945H344.23C345.093 287.945 345.76 287.685 346.232 287.164C346.704 286.643 346.94 285.992 346.94 285.211V276.349C346.94 275.519 346.68 274.859 346.159 274.371C345.655 273.883 345.012 273.639 344.23 273.639H330.29V267.608H344.23C345.109 267.608 346.053 267.763 347.062 268.072C348.088 268.382 349.032 268.886 349.895 269.586C350.773 270.27 351.506 271.173 352.092 272.296C352.678 273.403 352.971 274.754 352.971 276.349V285.26ZM387.102 296.539C387.102 297.63 386.963 298.606 386.687 299.469C386.41 300.348 386.044 301.113 385.588 301.764C385.132 302.431 384.603 302.993 384.001 303.448C383.399 303.92 382.764 304.303 382.097 304.596C381.446 304.889 380.778 305.1 380.095 305.23C379.427 305.377 378.793 305.45 378.19 305.45H366.74V299.103H378.19C379.053 299.103 379.696 298.883 380.119 298.443C380.542 298.004 380.754 297.369 380.754 296.539V276.495C380.754 275.665 380.542 275.038 380.119 274.615C379.696 274.176 379.053 273.956 378.19 273.956H366.74C365.959 273.956 365.34 274.2 364.885 274.688C364.429 275.16 364.201 275.763 364.201 276.495V285.089C364.201 285.919 364.421 286.554 364.86 286.993C365.3 287.433 365.943 287.652 366.789 287.652H378.19V294H366.74C366.138 294 365.503 293.935 364.836 293.805C364.169 293.658 363.501 293.438 362.834 293.146C362.183 292.853 361.556 292.478 360.954 292.022C360.352 291.55 359.823 290.989 359.367 290.338C358.911 289.671 358.545 288.906 358.269 288.043C357.992 287.164 357.854 286.179 357.854 285.089V276.495C357.854 275.893 357.919 275.258 358.049 274.591C358.195 273.924 358.415 273.264 358.708 272.613C359.001 271.946 359.375 271.311 359.831 270.709C360.303 270.107 360.865 269.578 361.516 269.122C362.183 268.666 362.948 268.3 363.811 268.023C364.673 267.747 365.65 267.608 366.74 267.608H378.19C378.793 267.608 379.427 267.682 380.095 267.828C380.778 267.958 381.446 268.17 382.097 268.463C382.764 268.756 383.399 269.138 384.001 269.61C384.603 270.066 385.132 270.628 385.588 271.295C386.044 271.946 386.41 272.703 386.687 273.565C386.963 274.428 387.102 275.405 387.102 276.495V296.539ZM421.306 276.349C421.306 277.228 421.151 278.18 420.842 279.205C420.533 280.214 420.028 281.158 419.328 282.037C418.645 282.9 417.741 283.624 416.618 284.21C415.511 284.796 414.16 285.089 412.565 285.089H401.115V279.059H412.565C413.428 279.059 414.095 278.798 414.567 278.277C415.039 277.74 415.275 277.081 415.275 276.3C415.275 275.47 415.007 274.819 414.47 274.347C413.949 273.875 413.314 273.639 412.565 273.639H401.115C400.253 273.639 399.585 273.907 399.113 274.444C398.641 274.965 398.405 275.616 398.405 276.397V285.26C398.405 286.106 398.666 286.765 399.187 287.237C399.724 287.709 400.383 287.945 401.164 287.945H412.565V294H401.115C400.236 294 399.284 293.845 398.259 293.536C397.25 293.227 396.306 292.73 395.427 292.047C394.564 291.347 393.84 290.444 393.254 289.337C392.668 288.214 392.375 286.855 392.375 285.26V276.349C392.375 275.47 392.53 274.526 392.839 273.517C393.148 272.491 393.645 271.547 394.328 270.685C395.028 269.806 395.931 269.073 397.038 268.487C398.161 267.901 399.52 267.608 401.115 267.608H412.565C413.444 267.608 414.388 267.763 415.397 268.072C416.423 268.382 417.367 268.886 418.229 269.586C419.108 270.27 419.841 271.173 420.427 272.296C421.013 273.403 421.306 274.754 421.306 276.349ZM448.674 273.956H434.392C433.529 273.956 432.878 274.176 432.438 274.615C431.999 275.038 431.779 275.665 431.779 276.495V294H425.432V276.495C425.432 275.405 425.57 274.428 425.847 273.565C426.123 272.703 426.49 271.946 426.945 271.295C427.417 270.628 427.954 270.066 428.557 269.61C429.159 269.138 429.785 268.756 430.437 268.463C431.104 268.17 431.771 267.958 432.438 267.828C433.122 267.682 433.757 267.608 434.343 267.608H448.674V273.956Z" fill="#6D3F8C"/>
<ellipse cx="143.826" cy="220.981" rx="22.8261" ry="23.0189" fill="#6D3F8C"/>
<ellipse cx="350.174" cy="23.0189" rx="22.8261" ry="23.0189" fill="#6D3F8C"/>
<path d="M146.565 63.0188C146.565 40.9274 164.474 23.0189 186.565 23.0189H342.87V180.981C342.87 203.073 324.961 220.981 302.87 220.981H146.565V63.0188Z" fill="#6D3F8C"/>
</svg>
