<svg width="30" height="30" viewBox="0 0 30 30" fill="none" xmlns="http://www.w3.org/2000/svg">
<path d="M7.5 17.8125C7.25136 17.8125 7.0129 17.9113 6.83709 18.0871C6.66127 18.2629 6.5625 18.5014 6.5625 18.75C6.5625 18.9986 6.66127 19.2371 6.83709 19.4129C7.0129 19.5887 7.25136 19.6875 7.5 19.6875H15C15.2486 19.6875 15.4871 19.5887 15.6629 19.4129C15.8387 19.2371 15.9375 18.9986 15.9375 18.75C15.9375 18.5014 15.8387 18.2629 15.6629 18.0871C15.4871 17.9113 15.2486 17.8125 15 17.8125H7.5Z" fill="#6D3F8C"/>
<path fill-rule="evenodd" clip-rule="evenodd" d="M6.25 5C5.25544 5 4.30161 5.39509 3.59835 6.09835C2.89509 6.80161 2.5 7.75544 2.5 8.75V21.25C2.5 22.2446 2.89509 23.1984 3.59835 23.9017C4.30161 24.6049 5.25544 25 6.25 25H23.75C24.7446 25 25.6984 24.6049 26.4017 23.9017C27.1049 23.1984 27.5 22.2446 27.5 21.25V8.75C27.5 7.75544 27.1049 6.80161 26.4017 6.09835C25.6984 5.39509 24.7446 5 23.75 5H6.25ZM23.75 6.875H6.25C5.75272 6.875 5.27581 7.07254 4.92417 7.42417C4.57254 7.77581 4.375 8.25272 4.375 8.75V10.3125H25.625V8.75C25.625 8.25272 25.4275 7.77581 25.0758 7.42417C24.7242 7.07254 24.2473 6.875 23.75 6.875V6.875ZM4.375 21.25V12.1875H25.625V21.25C25.625 21.7473 25.4275 22.2242 25.0758 22.5758C24.7242 22.9275 24.2473 23.125 23.75 23.125H6.25C5.75272 23.125 5.27581 22.9275 4.92417 22.5758C4.57254 22.2242 4.375 21.7473 4.375 21.25Z" fill="#6D3F8C"/>
</svg>
