<svg width="38" height="32" viewBox="0 0 38 32" fill="none" xmlns="http://www.w3.org/2000/svg">
<g clip-path="url(#clip0_292_133)">
<path d="M32.509 7.5C32.6416 7.5 32.7688 7.44732 32.8625 7.35355C32.9563 7.25979 33.009 7.13261 33.009 7V5.335C33.0085 4.90074 32.8357 4.48441 32.5286 4.17734C32.2216 3.87027 31.8053 3.69753 31.371 3.697H28.684L28.071 1.888C28.0293 1.76498 27.9414 1.663 27.8259 1.60364C27.7104 1.54429 27.5763 1.53222 27.452 1.57L12.899 5.994C12.7785 6.03795 12.6795 6.1264 12.6223 6.24116C12.5651 6.35591 12.5541 6.48823 12.5915 6.61087C12.6289 6.7335 12.7119 6.83713 12.8235 6.9004C12.935 6.96368 13.0665 6.98179 13.191 6.951L27.28 2.667L28.623 6.632C28.6656 6.75758 28.7563 6.86111 28.8752 6.91981C28.9941 6.97851 29.1314 6.98757 29.257 6.945C29.3826 6.90243 29.4861 6.81172 29.5448 6.69283C29.6035 6.57393 29.6126 6.43658 29.57 6.311L29.023 4.696H31.372C31.724 4.696 32.01 4.982 32.01 5.334V7C32.009 7.276 32.233 7.5 32.509 7.5Z" fill="white"/>
<path d="M36.5 15C36.3674 15 36.2402 15.0527 36.1464 15.1465C36.0527 15.2402 36 15.3674 36 15.5C36 15.6326 36.0527 15.7598 36.1464 15.8536C36.2402 15.9473 36.3674 16 36.5 16C36.851 16 37 16.149 37 16.5V22.5C37 22.851 36.851 23 36.5 23H28.5C28.149 23 28 22.851 28 22.5V17.5C28 17.149 28.149 17 28.5 17H34.5C34.6326 17 34.7598 16.9473 34.8536 16.8536C34.9473 16.7598 35 16.6326 35 16.5V10.5C35 9.58901 34.411 9.00001 33.5 9.00001H3C1.767 9.00001 1 8.23301 1 7.00001C1 5.76701 1.767 5.00001 3 5.00001H8.076L5.05 5.99801C4.98538 6.01664 4.92518 6.04812 4.87301 6.09056C4.82084 6.133 4.77777 6.18553 4.74638 6.24501C4.71498 6.30448 4.6959 6.36968 4.69029 6.43669C4.68467 6.50371 4.69264 6.57117 4.7137 6.63504C4.73477 6.69891 4.7685 6.75787 4.81289 6.8084C4.85727 6.85893 4.91139 6.89998 4.97201 6.92911C5.03263 6.95823 5.0985 6.97483 5.16568 6.97791C5.23286 6.98098 5.29997 6.97047 5.363 6.94701L23.482 0.974007C23.5444 0.95339 23.6021 0.920688 23.6518 0.877769C23.7016 0.83485 23.7424 0.782554 23.7719 0.723867C23.8014 0.665181 23.8191 0.601253 23.8239 0.535733C23.8287 0.470213 23.8206 0.404385 23.8 0.342007C23.7794 0.27963 23.7467 0.221923 23.7038 0.172184C23.6608 0.122444 23.6085 0.081645 23.5499 0.052116C23.4912 0.022587 23.4272 0.00490627 23.3617 8.33998e-05C23.2962 -0.00473947 23.2304 0.00338995 23.168 0.0240075L11.068 4.01401C11.045 4.01001 11.024 4.00001 11 4.00001H3C1.206 4.00001 0 5.20601 0 7.00001V29C0 30.794 1.206 32 3 32H33.5C34.411 32 35 31.411 35 30.5V25.5C35 25.3674 34.9473 25.2402 34.8536 25.1465C34.7598 25.0527 34.6326 25 34.5 25C34.3674 25 34.2402 25.0527 34.1464 25.1465C34.0527 25.2402 34 25.3674 34 25.5V30.5C34 30.851 33.851 31 33.5 31H3C1.767 31 1 30.233 1 29V9.31201C1.513 9.74501 2.192 10 3 10H33.5C33.851 10 34 10.149 34 10.5V16H28.5C27.589 16 27 16.589 27 17.5V22.5C27 23.411 27.589 24 28.5 24H36.5C37.411 24 38 23.411 38 22.5V16.5C38 15.589 37.411 15 36.5 15Z" fill="white"/>
<path d="M32 21C32.5523 21 33 20.5523 33 20C33 19.4477 32.5523 19 32 19C31.4477 19 31 19.4477 31 20C31 20.5523 31.4477 21 32 21Z" fill="white"/>
</g>
<defs>
<clipPath id="clip0_292_133">
<rect width="38" height="32" fill="white"/>
</clipPath>
</defs>
</svg>
