<svg width="30" height="30" viewBox="0 0 30 30" fill="none" xmlns="http://www.w3.org/2000/svg">
<g clip-path="url(#clip0_669_20)">
<path d="M28.9124 22.575H21.7171C21.1687 22.575 20.7046 22.1672 20.639 21.6234C20.5078 20.5781 20.0906 19.5938 19.4296 18.7734C19.0921 18.3516 19.1109 17.7469 19.4812 17.3531C20.6249 16.125 22.2468 15.4172 23.9296 15.4172C27.2812 15.4172 30.0046 18.1406 30.0046 21.4922C30.0016 21.78 29.8852 22.0551 29.6808 22.2578C29.4763 22.4604 29.2003 22.5744 28.9124 22.575V22.575ZM22.6171 20.4H27.6703C27.1968 18.7781 25.6968 17.5875 23.9249 17.5875C23.1234 17.5875 22.364 17.8219 21.7218 18.2672C22.1249 18.9281 22.4249 19.6453 22.6171 20.4V20.4Z" fill="#6D3F8C"/>
<path d="M23.925 16.0875C22.4766 16.0875 21.1922 15.1172 20.8031 13.7297C20.7234 13.4484 20.6766 13.1484 20.6766 12.8391C20.6766 11.0484 22.1344 9.59062 23.925 9.59062C25.7156 9.59062 27.1734 11.0484 27.1734 12.8391C27.1734 13.1437 27.1313 13.4484 27.0469 13.7344C26.6578 15.1172 25.3688 16.0875 23.925 16.0875V16.0875ZM23.925 11.7656C23.7597 11.766 23.5967 11.8044 23.4487 11.8779C23.3007 11.9514 23.1716 12.0581 23.0714 12.1895C22.9712 12.321 22.9027 12.4738 22.871 12.636C22.8394 12.7982 22.8456 12.9655 22.8891 13.125C23.0203 13.5937 23.4469 13.9125 23.925 13.9125C24.4031 13.9125 24.8297 13.5937 24.9563 13.1344C24.9844 13.0359 24.9984 12.9375 24.9984 12.8391C24.9984 12.2484 24.5156 11.7656 23.925 11.7656V11.7656ZM8.2875 22.575H1.0875C0.4875 22.575 0 22.0875 0 21.4875C0 18.1359 2.72813 15.4125 6.07969 15.4125C7.7625 15.4125 9.37969 16.1203 10.5281 17.3531C10.8984 17.7516 10.9172 18.3562 10.575 18.7781C9.91197 19.5937 9.49276 20.58 9.36563 21.6234C9.33244 21.8861 9.20464 22.1276 9.00618 22.3027C8.80772 22.4779 8.55221 22.5747 8.2875 22.575V22.575ZM2.32969 20.4H7.3875C7.575 19.65 7.87969 18.9281 8.28281 18.2672C7.63588 17.8229 6.86916 17.5859 6.08438 17.5875C4.30313 17.5875 2.79844 18.7734 2.32969 20.4V20.4Z" fill="#6D3F8C"/>
<path d="M6.07498 16.0875C4.62654 16.0875 3.34216 15.1172 2.9531 13.7297C2.87341 13.4484 2.82654 13.1484 2.82654 12.8391C2.82654 11.0484 4.28435 9.59062 6.07498 9.59062C7.8656 9.59062 9.32341 11.0484 9.32341 12.8391C9.32341 13.1437 9.28123 13.4484 9.19685 13.7344C8.80779 15.1172 7.52341 16.0875 6.07498 16.0875ZM6.07498 11.7656C5.9097 11.766 5.74672 11.8044 5.59869 11.8779C5.45066 11.9514 5.32154 12.0581 5.22136 12.1895C5.12118 12.321 5.05263 12.4738 5.02101 12.636C4.98939 12.7982 4.99556 12.9655 5.03904 13.125C5.17029 13.5937 5.59685 13.9125 6.07498 13.9125C6.5531 13.9125 6.97966 13.5937 7.10623 13.1344C7.15264 12.9746 7.16118 12.8063 7.13116 12.6427C7.10114 12.479 7.03339 12.3247 6.93329 12.1918C6.83319 12.0589 6.70349 11.9513 6.5545 11.8773C6.40551 11.8033 6.24132 11.7651 6.07498 11.7656ZM21.7734 23.4187H8.23123C7.63123 23.4187 7.14373 22.9312 7.14373 22.3312C7.14373 21.9891 7.16716 21.6562 7.20935 21.3375C7.38279 19.9031 7.96404 18.5391 8.88279 17.4047C10.3828 15.5437 12.6094 14.475 15 14.475C17.3859 14.475 19.6172 15.5437 21.1172 17.4C22.0359 18.5344 22.6125 19.9031 22.7906 21.3469C22.8328 21.6516 22.8515 21.9844 22.8515 22.3266C22.8534 22.4693 22.8269 22.611 22.7735 22.7435C22.7202 22.8759 22.6411 22.9964 22.5408 23.098C22.4405 23.1996 22.321 23.2803 22.1893 23.3354C22.0575 23.3904 21.9162 23.4188 21.7734 23.4187V23.4187ZM9.42185 21.2437H20.5781C20.4 20.3344 20.0109 19.4859 19.4297 18.7687C18.8979 18.1067 18.2242 17.5726 17.4583 17.2059C16.6923 16.8391 15.8538 16.6492 15.0047 16.65C13.275 16.65 11.6625 17.4234 10.5797 18.7687C9.98904 19.4953 9.59529 20.3437 9.42185 21.2437V21.2437Z" fill="#6D3F8C"/>
<path d="M15.0001 14.6203C13.2094 14.6203 11.6204 13.4203 11.1329 11.7C11.0287 11.3421 10.9767 10.9711 10.9782 10.5984C10.9782 8.38125 12.7829 6.57656 15.0001 6.57656C17.2172 6.57656 19.0219 8.38125 19.0219 10.5984C19.0219 10.9781 18.9704 11.3531 18.8626 11.7094C18.3797 13.4203 16.7907 14.6203 15.0001 14.6203V14.6203ZM15.0001 8.75625C13.9829 8.75625 13.1532 9.58594 13.1532 10.6031C13.1542 11.0926 13.3491 11.5618 13.6952 11.908C14.0414 12.2541 14.5105 12.449 15.0001 12.45C15.8204 12.45 16.5516 11.9016 16.7719 11.1141C16.8188 10.9453 16.8422 10.7766 16.8422 10.6031C16.8431 10.3607 16.7961 10.1206 16.7039 9.89642C16.6117 9.67226 16.4761 9.46853 16.3049 9.29692C16.1337 9.12531 15.9303 8.9892 15.7064 8.89642C15.4825 8.80364 15.2424 8.756 15.0001 8.75625Z" fill="#6D3F8C"/>
</g>
<defs>
<clipPath id="clip0_669_20">
<rect width="30" height="30" fill="white"/>
</clipPath>
</defs>
</svg>
