<svg width="24" height="24" viewBox="0 0 24 24" fill="none" xmlns="http://www.w3.org/2000/svg">
<path d="M12 23L2.5 17.5V6.5L12 1L21.5 6.5V17.5L12 23ZM12 3.312L4.5 7.653V16.347L12 20.689L19.5 16.347V7.653L12 3.311V3.312ZM12 16C11.0746 16.0002 10.1777 15.6795 9.46221 15.0926C8.74672 14.5056 8.25688 13.6888 8.07616 12.7811C7.89544 11.8735 8.03501 10.9313 8.4711 10.1151C8.90719 9.29884 9.61282 8.65906 10.4677 8.30476C11.3227 7.95046 12.274 7.90355 13.1596 8.17204C14.0452 8.44052 14.8104 9.00778 15.3247 9.77716C15.8389 10.5465 16.0705 11.4704 15.9799 12.3914C15.8894 13.3124 15.4823 14.1735 14.828 14.828C14.0764 15.5757 13.0602 15.9968 12 16ZM12 10C11.7374 9.99993 11.4773 10.0516 11.2346 10.1521C10.9919 10.2525 10.7714 10.3998 10.5856 10.5854C10.3999 10.7711 10.2525 10.9915 10.1519 11.2342C10.0514 11.4768 9.99957 11.7369 9.9995 11.9995C9.99943 12.2621 10.0511 12.5222 10.1515 12.7649C10.252 13.0076 10.3993 13.2281 10.5849 13.4139C10.7706 13.5996 10.991 13.747 11.2337 13.8476C11.4763 13.9481 11.7364 13.9999 11.999 14C12.5294 14.0001 13.0382 13.7895 13.4134 13.4146C13.7885 13.0396 13.9994 12.5309 13.9995 12.0005C13.9996 11.4701 13.789 10.9613 13.4141 10.5861C13.0391 10.211 12.5304 10.0001 12 10Z" fill="black"/>
</svg>
