<svg width="24" height="24" viewBox="0 0 24 24" fill="none" xmlns="http://www.w3.org/2000/svg">
<path d="M18.25 2.99699C18.9793 2.99699 19.6788 3.28673 20.1945 3.80245C20.7103 4.31818 21 5.01765 21 5.74699V18.247C21 18.6081 20.9289 18.9657 20.7907 19.2994C20.6525 19.633 20.4499 19.9362 20.1945 20.1915C19.9392 20.4469 19.636 20.6495 19.3024 20.7877C18.9687 20.9259 18.6111 20.997 18.25 20.997H5.75C5.38886 20.997 5.03127 20.9259 4.69762 20.7877C4.36398 20.6495 4.06082 20.4469 3.80546 20.1915C3.5501 19.9362 3.34753 19.633 3.20933 19.2994C3.07113 18.9657 3 18.6081 3 18.247V5.74699C3 5.01765 3.28973 4.31818 3.80546 3.80245C4.32118 3.28673 5.02065 2.99699 5.75 2.99699H18.25ZM18.25 4.49699H5.75C5.06 4.49699 4.5 5.05699 4.5 5.74699V18.247C4.5 18.937 5.06 19.497 5.75 19.497H18.25C18.94 19.497 19.5 18.937 19.5 18.247V5.74699C19.5 5.05699 18.94 4.49699 18.25 4.49699ZM7.75 8.99999C8.13 8.99999 8.443 9.28099 8.493 9.64599L8.5 9.74699V16.254C8.49974 16.3522 8.48013 16.4494 8.4423 16.5401C8.40446 16.6307 8.34915 16.7131 8.2795 16.7823C8.20986 16.8516 8.12725 16.9065 8.0364 16.9438C7.94555 16.9812 7.84823 17.0003 7.75 17C7.56921 17.0001 7.39447 16.9349 7.25795 16.8164C7.12143 16.6978 7.03231 16.534 7.007 16.355L7 16.254V9.74699C7 9.33499 7.336 8.99999 7.75 8.99999ZM16.25 6.99999C16.63 6.99999 16.944 7.27499 16.993 7.62999L17 7.72999V16.271C16.9987 16.3682 16.9783 16.4641 16.9399 16.5534C16.9015 16.6427 16.8459 16.7236 16.7762 16.7913C16.7066 16.8591 16.6242 16.9125 16.534 16.9485C16.4437 16.9845 16.3472 17.0023 16.25 17.001C16.071 17.0028 15.8972 16.94 15.7608 16.8241C15.6243 16.7082 15.5342 16.547 15.507 16.37L15.5 16.271V7.72999C15.5013 7.63281 15.5217 7.53684 15.5601 7.44756C15.5985 7.35828 15.6541 7.27743 15.7238 7.20964C15.7934 7.14186 15.8758 7.08845 15.966 7.05248C16.0563 7.01651 16.1528 6.99867 16.25 6.99999ZM11.975 11.997C12.1513 11.9945 12.3226 12.0559 12.4571 12.1699C12.5917 12.2838 12.6804 12.4427 12.707 12.617L12.715 12.717L12.75 16.264C12.7508 16.4573 12.6749 16.643 12.539 16.7804C12.4031 16.9178 12.2183 16.9957 12.025 16.997C11.8487 16.9995 11.6774 16.9381 11.5429 16.8241C11.4083 16.7101 11.3196 16.5513 11.293 16.377L11.285 16.277L11.25 12.731C11.2489 12.5376 11.3247 12.3516 11.4606 12.214C11.5966 12.0764 11.7816 11.9983 11.975 11.997Z" fill="black"/>
</svg>
