<svg width="214" height="214" viewBox="0 0 214 214" fill="none" xmlns="http://www.w3.org/2000/svg">
<path d="M211.592 86.1093H203V85.6667H107V128.333H167.283C158.488 153.171 134.856 171 107 171C71.656 171 43 142.344 43 107C43 71.656 71.656 43 107 43C123.315 43 138.157 49.1547 149.459 59.208L179.629 29.0373C160.579 11.2827 135.096 0.333344 107 0.333344C48.0933 0.333344 0.333344 48.0933 0.333344 107C0.333344 165.907 48.0933 213.667 107 213.667C165.907 213.667 213.667 165.907 213.667 107C213.667 99.848 212.931 92.8667 211.592 86.1093Z" fill="#FFC107"/>
<path d="M12.632 57.352L47.6773 83.0533C57.16 59.576 80.1253 43 107 43C123.315 43 138.157 49.1547 149.459 59.208L179.629 29.0373C160.579 11.2827 135.096 0.333344 107 0.333344C66.0293 0.333344 30.4987 23.464 12.632 57.352Z" fill="#FF3D00"/>
<path d="M107 213.667C134.552 213.667 159.587 203.123 178.515 185.976L145.501 158.04C134.432 166.458 120.906 171.011 107 171C79.256 171 55.6987 153.309 46.824 128.621L12.04 155.421C29.6933 189.965 65.544 213.667 107 213.667Z" fill="#4CAF50"/>
<path d="M211.592 86.1093H203V85.6667H107V128.333H167.283C163.076 140.154 155.498 150.484 145.485 158.045L145.501 158.035L178.515 185.971C176.179 188.093 213.667 160.333 213.667 107C213.667 99.848 212.931 92.8667 211.592 86.1093Z" fill="#1976D2"/>
</svg>
