<svg width="24" height="24" viewBox="0 0 24 24" fill="none" xmlns="http://www.w3.org/2000/svg">
<path d="M5 22H19C19.5304 22 20.0391 21.7893 20.4142 21.4142C20.7893 21.0391 21 20.5304 21 20V11C21.0008 10.8684 20.9755 10.7379 20.9258 10.6161C20.876 10.4943 20.8027 10.3834 20.71 10.29L12.71 2.29C12.5226 2.10375 12.2692 1.99921 12.005 1.99921C11.7408 1.99921 11.4874 2.10375 11.3 2.29L3.3 10.29C3.20551 10.3826 3.13034 10.4931 3.07885 10.6149C3.02735 10.7368 3.00055 10.8677 3 11V20C3 20.5304 3.21071 21.0391 3.58579 21.4142C3.96086 21.7893 4.46957 22 5 22ZM10 20V15H14V20H10ZM5 11.41L12 4.41L19 11.41V20H16V15C16 14.4696 15.7893 13.9609 15.4142 13.5858C15.0391 13.2107 14.5304 13 14 13H10C9.46957 13 8.96086 13.2107 8.58579 13.5858C8.21071 13.9609 8 14.4696 8 15V20H5V11.41Z" fill="white"/>
</svg>
